%TF.GenerationSoftware,KiCad,Pcbnew,10.0.5*%
%TF.CreationDate,2026-09-18T17:41:51-07:00*%
%TF.ProjectId,IP_cell_long-holes,49505f63-656c-46c5-9f6c-6f6e672d686f,rev?*%
%TF.SameCoordinates,Original*%
%TF.FileFunction,Profile,NP*%
%FSLAX46Y46*%
G04 Gerber Fmt 4.6, Leading zero omitted, Abs format (unit mm)*
G04 Created by KiCad (PCBNEW 10.0.5) date 2026-09-18 17:41:51*
%MOMM*%
%LPD*%
G01*
G04 APERTURE LIST*
%TA.AperFunction,Profile*%
%ADD10C,0.050000*%
%TD*%
G04 APERTURE END LIST*
D10*
X78000000Y-132700000D02*
X78000000Y-132700000D01*
G75*
G02*
X78700000Y-132000000I700000J0D01*
G01*
X78800000Y-132000000D01*
G75*
G02*
X79500000Y-132700000I0J-700000D01*
G01*
X79500000Y-144300000D01*
G75*
G02*
X78800000Y-145000000I-700000J0D01*
G01*
X78700000Y-145000000D01*
G75*
G02*
X78000000Y-144300000I0J700000D01*
G01*
X78000000Y-132700000D01*
X73000000Y-132700000D02*
X73000000Y-132700000D01*
G75*
G02*
X73700000Y-132000000I700000J0D01*
G01*
X73800000Y-132000000D01*
G75*
G02*
X74500000Y-132700000I0J-700000D01*
G01*
X74500000Y-144300000D01*
G75*
G02*
X73800000Y-145000000I-700000J0D01*
G01*
X73700000Y-145000000D01*
G75*
G02*
X73000000Y-144300000I0J700000D01*
G01*
X73000000Y-132700000D01*
X63000000Y-132700000D02*
X63000000Y-132700000D01*
G75*
G02*
X63700000Y-132000000I700000J0D01*
G01*
X63800000Y-132000000D01*
G75*
G02*
X64500000Y-132700000I0J-700000D01*
G01*
X64500000Y-144300000D01*
G75*
G02*
X63800000Y-145000000I-700000J0D01*
G01*
X63700000Y-145000000D01*
G75*
G02*
X63000000Y-144300000I0J700000D01*
G01*
X63000000Y-132700000D01*
X68000000Y-132700000D02*
X68000000Y-132700000D01*
G75*
G02*
X68700000Y-132000000I700000J0D01*
G01*
X68800000Y-132000000D01*
G75*
G02*
X69500000Y-132700000I0J-700000D01*
G01*
X69500000Y-144300000D01*
G75*
G02*
X68800000Y-145000000I-700000J0D01*
G01*
X68700000Y-145000000D01*
G75*
G02*
X68000000Y-144300000I0J700000D01*
G01*
X68000000Y-132700000D01*
X48500000Y-39500000D02*
X93500000Y-39500000D01*
X93500000Y-152000000D01*
X48500000Y-152000000D01*
X48500000Y-39500000D01*
M02*
